<svg width="91" height="91" viewBox="0 0 91 91" fill="none" xmlns="http://www.w3.org/2000/svg">
<path d="M45.254 23.905C46.508 21.354 47.957 19.194 49.815 17.319C57.227 9.83299 69.59 9.14499 77.729 15.87C84.135 21.162 87.372 28.059 87.567 36.342C87.645 39.706 86.393 42.774 84.838 45.701C81.737 51.536 77.46 56.468 72.866 61.152C64.665 69.505 55.579 76.816 46.063 83.604C45.643 83.91 45.322 84.252 44.659 83.783C34.285 76.361 24.397 68.373 15.638 59.057C11.904 55.085 8.527 50.83 5.825 46.059C1.143 37.789 2.5 29.864 7.17 22.197C10.654 16.48 15.687 12.758 22.366 11.54C31.466 9.89399 40.238 14.311 44.601 22.663C44.781 23.019 44.96 23.355 45.254 23.905Z" fill="#FE9197"/>
<path d="M45.255 86.526C44.545 86.527 43.856 86.293 43.205 85.833C31.028 77.121 21.689 69.162 13.807 60.778C9.51799 56.217 6.19199 51.807 3.63899 47.297C-1.12701 38.882 -0.673007 30.243 5.02399 20.891C9.00299 14.365 14.686 10.387 21.917 9.069C23.317 8.815 24.735 8.687 26.136 8.687C33.781 8.687 40.872 12.536 45.264 18.902C46.113 17.673 47.031 16.561 48.031 15.551C52.328 11.212 58.38 8.723 64.635 8.723C70.044 8.723 75.263 10.574 79.329 13.934C86.247 19.648 89.864 27.167 90.079 36.283C90.176 40.453 88.515 44.137 87.057 46.881C83.593 53.401 78.847 58.644 74.661 62.912C67.208 70.503 58.331 77.94 47.522 85.65L47.455 85.7C47.098 85.969 46.355 86.526 45.255 86.526ZM26.135 13.712C25.033 13.712 23.916 13.813 22.814 14.013C17.057 15.062 12.515 18.256 9.31599 23.505C4.58699 31.268 4.17199 38.041 8.01199 44.821C10.365 48.978 13.457 53.071 17.467 57.337C24.93 65.273 33.774 72.844 45.238 81.106C55.527 73.722 63.978 66.619 71.072 59.392C75.006 55.381 79.454 50.477 82.618 44.523C83.861 42.182 85.124 39.386 85.055 36.4C84.875 28.808 81.871 22.552 76.128 17.808C72.96 15.19 68.878 13.748 64.634 13.748C59.71 13.748 54.959 15.694 51.6 19.087C50.004 20.697 48.704 22.58 47.508 25.014C47.092 25.86 46.238 26.402 45.295 26.417C45.281 26.418 45.268 26.418 45.254 26.418C44.326 26.418 43.475 25.907 43.037 25.088C42.73 24.516 42.545 24.164 42.357 23.794C39.066 17.493 32.994 13.712 26.135 13.712Z" fill="#454B53"/>
<path d="M69.848 48.168C69.291 48.168 68.731 47.983 68.264 47.605C67.188 46.73 67.025 45.148 67.9 44.071C69.731 41.819 72.491 35.149 71.608 31.571C71.32 30.407 70.735 30.023 70.258 29.82C68.983 29.274 68.391 27.798 68.936 26.522C69.481 25.246 70.96 24.655 72.233 25.199C74.411 26.13 75.88 27.916 76.486 30.366C77.887 36.039 74.237 44.242 71.799 47.241C71.303 47.851 70.578 48.168 69.848 48.168Z" fill="white"/>
<path d="M65.1 55.979C64.43 55.979 63.8 55.719 63.33 55.25C62.85 54.77 62.59 54.14 62.59 53.47C62.59 52.81 62.86 52.16 63.33 51.69C64.26 50.76 65.939 50.76 66.88 51.69C67.35 52.161 67.619 52.81 67.619 53.47C67.619 54.14 67.349 54.77 66.88 55.25C66.4 55.72 65.77 55.979 65.1 55.979Z" fill="white"/>
</svg>
